<svg width="15" height="18" viewBox="0 0 15 18" fill="none" xmlns="http://www.w3.org/2000/svg">
<g clip-path="url(#clip0_195_5705)">
<path d="M14.398 14.0275C14.1395 14.6563 13.8334 15.2352 13.4789 15.7674C12.9956 16.4929 12.5998 16.9952 12.2949 17.274C11.8221 17.7318 11.3156 17.9662 10.7732 17.9796C10.3838 17.9796 9.91423 17.8629 9.36761 17.6262C8.81919 17.3907 8.3152 17.274 7.85437 17.274C7.37106 17.274 6.85272 17.3907 6.29829 17.6262C5.74302 17.8629 5.29569 17.9862 4.95369 17.9985C4.43355 18.0218 3.91511 17.7807 3.39761 17.274C3.06731 16.9707 2.65418 16.4507 2.15927 15.7141C1.62826 14.9274 1.19171 14.0152 0.849698 12.9753C0.483419 11.852 0.299805 10.7642 0.299805 9.71115C0.299805 8.50485 0.547367 7.46444 1.04323 6.59258C1.43294 5.89227 1.95138 5.33984 2.60026 4.9343C3.24913 4.52875 3.95025 4.32209 4.70528 4.30887C5.11841 4.30887 5.66018 4.44342 6.33343 4.70786C7.00479 4.97318 7.43586 5.10774 7.62485 5.10774C7.76615 5.10774 8.24503 4.95041 9.05683 4.63675C9.82453 4.34587 10.4725 4.22543 11.0032 4.27287C12.4416 4.39509 13.5221 4.99207 14.2408 6.06759C12.9544 6.88824 12.3181 8.03765 12.3308 9.51216C12.3424 10.6607 12.7381 11.6164 13.5158 12.3753C13.8683 12.7275 14.2619 12.9997 14.6998 13.193C14.6048 13.483 14.5046 13.7608 14.398 14.0275ZM11.0993 0.360103C11.0993 1.26031 10.7869 2.10083 10.1643 2.8788C9.41298 3.80366 8.5042 4.33809 7.51869 4.25376C7.50614 4.14576 7.49886 4.0321 7.49886 3.91266C7.49886 3.04846 7.85616 2.1236 8.49069 1.3674C8.80748 0.984528 9.21037 0.666171 9.69896 0.412211C10.1865 0.162041 10.6476 0.0236918 11.0813 0C11.094 0.120343 11.0993 0.240706 11.0993 0.360103Z" fill="white"/>
</g>
<defs>
<clipPath id="clip0_195_5705">
<rect width="14.4" height="18" fill="white" transform="translate(0.299805)"/>
</clipPath>
</defs>
</svg>
