<svg width="50" height="50" viewBox="0 0 50 50" fill="none" xmlns="http://www.w3.org/2000/svg">
<rect width="50" height="50" rx="25" fill="black"/>
<path fill-rule="evenodd" clip-rule="evenodd" d="M36.7657 25.21C36.7657 22.9482 34.1662 20.99 30.3795 20.0414C29.431 16.2548 27.4728 13.6553 25.211 13.6553C22.9492 13.6553 20.9909 16.2548 20.0424 20.0414C16.2557 20.99 13.6562 22.9482 13.6562 25.21C13.6562 27.4718 16.2557 29.4301 20.0424 30.3786C20.9909 34.1652 22.9492 36.7647 25.211 36.7647C27.4728 36.7647 29.431 34.1653 30.3795 30.3786C34.1662 29.4301 36.7657 27.4718 36.7657 25.21ZM30.3464 20.0746C26.3349 19.6167 24.087 19.6078 20.0756 20.0746C19.5428 23.4908 19.5774 25.7783 20.0756 30.3454C24.0853 30.7893 26.3357 30.7866 30.3464 30.3454C30.9807 25.9426 31.0462 23.6533 30.3464 20.0746Z" fill="white"/>
</svg>
